{
	"asset":{
		"generator":"Khronos glTF Blender I/O v3.5.30",
		"version":"2.0"
	},
	"extensionsUsed":[
		"KHR_materials_specular",
		"KHR_materials_ior"
	],
	"scene":0,
	"scenes":[
		{
			"name":"Scene",
			"nodes":[
				0,
				1
			]
		}
	],
	"nodes":[
		{
			"mesh":0,
			"name":"Sphere.002",
			"translation":[
				0,
				2.071725606918335,
				-3.1560847759246826
			]
		},
		{
			"mesh":1,
			"name":"Plane",
			"scale":[
				4.772317886352539,
				4.772317886352539,
				4.772317886352539
			]
		}
	],
	"materials":[
		{
			"doubleSided":true,
			"name":"Material.002",
			"pbrMetallicRoughness":{
				"baseColorFactor":[
					0.8000000715255737,
					0.01352220494300127,
					0.03589312359690666,
					1
				],
				"metallicFactor":0,
				"roughnessFactor":0.5
			}
		},
		{
			"doubleSided":true,
			"extensions":{
				"KHR_materials_specular":{
					"specularColorFactor":[
						2.371357614441398,
						2.371357614441398,
						2.371357614441398
					]
				},
				"KHR_materials_ior":{
					"ior":1.4500000476837158
				}
			},
			"name":"Material.003",
			"pbrMetallicRoughness":{
				"baseColorFactor":[
					0.8000000715255737,
					0.01352220494300127,
					0.03589312359690666,
					1
				],
				"metallicFactor":0,
				"roughnessFactor":0
			}
		}
	],
	"meshes":[
		{
			"name":"Sphere.002",
			"primitives":[
				{
					"attributes":{
						"POSITION":0,
						"TEXCOORD_0":1,
						"NORMAL":2
					},
					"indices":3,
					"material":0
				},
				{
					"attributes":{
						"POSITION":4,
						"TEXCOORD_0":5,
						"NORMAL":6
					},
					"indices":7,
					"material":1
				}
			]
		},
		{
			"name":"Plane",
			"primitives":[
				{
					"attributes":{
						"POSITION":8,
						"TEXCOORD_0":9,
						"NORMAL":10
					},
					"indices":11
				}
			]
		}
	],
	"accessors":[
		{
			"bufferView":0,
			"componentType":5126,
			"count":1118,
			"max":[
				0.9999997019767761,
				1,
				7.337703227996826
			],
			"min":[
				-0.9999990463256836,
				-1,
				2.1560847759246826
			],
			"type":"VEC3"
		},
		{
			"bufferView":1,
			"componentType":5126,
			"count":1118,
			"type":"VEC2"
		},
		{
			"bufferView":2,
			"componentType":5126,
			"count":1118,
			"type":"VEC3"
		},
		{
			"bufferView":3,
			"componentType":5123,
			"count":5760,
			"type":"SCALAR"
		},
		{
			"bufferView":4,
			"componentType":5126,
			"count":559,
			"max":[
				0.9999997019767761,
				1,
				0.9999993443489075
			],
			"min":[
				-0.9999990463256836,
				-1,
				-1
			],
			"type":"VEC3"
		},
		{
			"bufferView":5,
			"componentType":5126,
			"count":559,
			"type":"VEC2"
		},
		{
			"bufferView":6,
			"componentType":5126,
			"count":559,
			"type":"VEC3"
		},
		{
			"bufferView":7,
			"componentType":5123,
			"count":2880,
			"type":"SCALAR"
		},
		{
			"bufferView":8,
			"componentType":5126,
			"count":4,
			"max":[
				1,
				0,
				1
			],
			"min":[
				-1,
				0,
				-1
			],
			"type":"VEC3"
		},
		{
			"bufferView":9,
			"componentType":5126,
			"count":4,
			"type":"VEC2"
		},
		{
			"bufferView":10,
			"componentType":5126,
			"count":4,
			"type":"VEC3"
		},
		{
			"bufferView":11,
			"componentType":5123,
			"count":6,
			"type":"SCALAR"
		}
	],
	"bufferViews":[
		{
			"buffer":0,
			"byteLength":13416,
			"byteOffset":0,
			"target":34962
		},
		{
			"buffer":0,
			"byteLength":8944,
			"byteOffset":13416,
			"target":34962
		},
		{
			"buffer":0,
			"byteLength":13416,
			"byteOffset":22360,
			"target":34962
		},
		{
			"buffer":0,
			"byteLength":11520,
			"byteOffset":35776,
			"target":34963
		},
		{
			"buffer":0,
			"byteLength":6708,
			"byteOffset":47296,
			"target":34962
		},
		{
			"buffer":0,
			"byteLength":4472,
			"byteOffset":54004,
			"target":34962
		},
		{
			"buffer":0,
			"byteLength":6708,
			"byteOffset":58476,
			"target":34962
		},
		{
			"buffer":0,
			"byteLength":5760,
			"byteOffset":65184,
			"target":34963
		},
		{
			"buffer":0,
			"byteLength":48,
			"byteOffset":70944,
			"target":34962
		},
		{
			"buffer":0,
			"byteLength":32,
			"byteOffset":70992,
			"target":34962
		},
		{
			"buffer":0,
			"byteLength":48,
			"byteOffset":71024,
			"target":34962
		},
		{
			"buffer":0,
			"byteLength":12,
			"byteOffset":71072,
			"target":34963
		}
	],
	"buffers":[
		{
			"byteLength":71084,
			"uri":"data:application/octet-stream;base64,"
		}
	]
}
